<?xml version="1.0" encoding="utf-8"?>
<!-- Generator: Adobe Illustrator 22.1.0, SVG Export Plug-In . SVG Version: 6.00 Build 0)  -->
<svg version="1.1" id="Capa_1" xmlns="http://www.w3.org/2000/svg" xmlns:xlink="http://www.w3.org/1999/xlink" x="0px" y="0px"
	 viewBox="0 0 39 37" style="enable-background:new 0 0 39 37;" xml:space="preserve">
<style type="text/css">
	.st0{fill:url(#SVGID_1_);}
	.st1{fill:#FFFFFF;}
</style>
<g>
	<linearGradient id="SVGID_1_" gradientUnits="userSpaceOnUse" x1="24.6039" y1="18.9356" x2="14.4822" y2="1.4043">
		<stop  offset="0" style="stop-color:#00D394"/>
		<stop  offset="1" style="stop-color:#00E2B6"/>
	</linearGradient>
	<path class="st0" d="M30.2,10.7c0,2.4-1,4.5-2.5,6c-1.5,1.5-3.7,2.5-6.1,2.5V15c1.2,0,2.3-0.5,3-1.3c0.8-0.8,1.3-1.8,1.3-3
		c0-1.2-0.5-2.3-1.3-3c-0.8-0.8-1.8-1.3-3-1.3h-4.3v12.8h-4.3V2.2h8.6c2.4,0,4.5,1,6.1,2.5C29.3,6.2,30.2,8.4,30.2,10.7z"/>
	<g>
		<g>
			<path class="st1" d="M26.7,27v0.7c-0.4-0.5-1-0.8-1.8-0.8c-0.7,0-1.4,0.3-1.9,0.8c-0.5,0.6-0.8,1.3-0.8,2.1s0.3,1.5,0.8,2.1
				c0.5,0.6,1.2,0.8,1.9,0.8c0.8,0,1.4-0.3,1.8-0.8v0.7h1.4V27H26.7z M26.4,30.9c-0.3,0.3-0.7,0.4-1.1,0.4c-0.4,0-0.8-0.1-1.1-0.4
				c-0.3-0.3-0.4-0.7-0.4-1.1s0.1-0.8,0.4-1.1c0.3-0.3,0.7-0.4,1.1-0.4c0.4,0,0.8,0.1,1.1,0.4c0.3,0.3,0.4,0.7,0.4,1.1
				S26.6,30.6,26.4,30.9z"/>
			<path class="st1" d="M32,26.9v1.6c-0.4-0.1-0.8,0-1.2,0.3c-0.3,0.2-0.5,0.6-0.5,1.1v2.7h-1.4V27h1.4v1c0.1-0.4,0.4-0.6,0.7-0.8
				C31.3,27,31.6,26.9,32,26.9z"/>
			<path class="st1" d="M37.7,31.3c-0.2,0.4-0.6,0.8-1,1c-0.4,0.3-0.9,0.4-1.5,0.4c-0.8,0-1.5-0.3-2.1-0.8c-0.6-0.6-0.8-1.3-0.8-2.1
				c0-0.8,0.3-1.5,0.8-2.1c0.6-0.6,1.3-0.8,2.1-0.8c0.5,0,1,0.1,1.5,0.4c0.4,0.3,0.8,0.6,1,1L36.4,29c-0.1-0.2-0.3-0.4-0.5-0.5
				s-0.5-0.2-0.8-0.2c-0.4,0-0.8,0.1-1.1,0.4c-0.3,0.3-0.4,0.6-0.4,1.1c0,0.4,0.1,0.8,0.4,1.1c0.3,0.3,0.6,0.4,1.1,0.4
				c0.3,0,0.5-0.1,0.8-0.2c0.2-0.1,0.4-0.3,0.5-0.5L37.7,31.3z"/>
			<path class="st1" d="M15.2,29.8c0-0.8-0.3-1.5-0.8-2.1c-0.5-0.6-1.2-0.8-2-0.8c-0.9,0-1.6,0.3-2.1,0.8c-0.5,0.6-0.8,1.3-0.8,2.1
				c0,0.8,0.3,1.5,0.8,2.1c0.6,0.6,1.3,0.8,2.2,0.8c1.1,0,1.9-0.4,2.4-1.2l-1.2-0.7c-0.3,0.4-0.7,0.6-1.2,0.6c-0.9,0-1.4-0.3-1.6-1
				h4.2C15.2,30.2,15.2,30,15.2,29.8z M11,29.3c0.1-0.4,0.2-0.6,0.5-0.8c0.3-0.2,0.6-0.3,1-0.3c0.3,0,0.6,0.1,0.9,0.3
				c0.3,0.2,0.4,0.5,0.5,0.8H11z"/>
			<path class="st1" d="M7.9,25.9c-0.7-0.7-1.6-1.1-2.7-1.1h-4v7.8h4c1.1,0,2-0.4,2.7-1.1C8.7,30.7,9,29.8,9,28.7
				C9,27.6,8.7,26.7,7.9,25.9z M6.6,30.2c-0.4,0.4-0.9,0.6-1.4,0.6H3v-4.2h2.1c0.6,0,1.1,0.2,1.4,0.6c0.4,0.4,0.6,0.9,0.6,1.5
				C7.2,29.3,7,29.8,6.6,30.2z"/>
			<path class="st1" d="M21,27.7c-0.5-0.6-1.2-0.8-1.9-0.8c-0.8,0-1.4,0.3-1.8,0.8V27h-1.4v7.8h1.4v-2.9c0.4,0.5,1,0.8,1.8,0.8
				c0.7,0,1.4-0.3,1.9-0.8c0.5-0.6,0.8-1.3,0.8-2.1S21.5,28.3,21,27.7z M20.1,30.9c-0.3,0.3-0.7,0.4-1.1,0.4c-0.4,0-0.8-0.1-1.1-0.4
				c-0.3-0.3-0.4-0.7-0.4-1.1s0.1-0.8,0.4-1.1c0.3-0.3,0.7-0.4,1.1-0.4c0.4,0,0.8,0.1,1.1,0.4c0.3,0.3,0.4,0.7,0.4,1.1
				S20.4,30.6,20.1,30.9z"/>
		</g>
	</g>
</g>
<g>
</g>
<g>
</g>
<g>
</g>
<g>
</g>
<g>
</g>
<g>
</g>
</svg>
